# xmcd
#
# Track frame offsets:
#	150
#	19136
#	39519
#	57137
#	75455
#	94074
#	113748
#	128825
#	145791
#	164494
#	181369
#	199062
#	217916
#	230853
#	246189
#	264976
#	279950
#
# Disc length: 3962 seconds
#
# Revision: 1
# Processed by: cddbd v1.5.2PL0 Copyright (c) Steve Scherf et al.
# Submitted via: audiograbber 1.83.01
#
DISCID=e70f7811
DTITLE=Various Artist - CKC013
DYEAR=1900
DGENRE=Karaoke
TTITLE0=Lonestar - Amazed
TTITLE1=Lonestar - I'm Already There
TTITLE2=Lonestar - Smile
TTITLE3=Lonestar - With Me
TTITLE4=Lonestar - Tell Her That You Love Her
TTITLE5=Lonestar - Not A Day Goes By
TTITLE6=Lonestar - Every Little Thing She Does
TTITLE7=Lonestar - What About Now
TTITLE8=Lonestar - Walking In Memphis
TTITLE9=Lonestar - My Front Porch Lookin' In
TTITLE10=Diamond Rio - Beautiful Mess
TTITLE11=Diamond Rio - I Believe
TTITLE12=Diamond Rio - That's Just That
TTITLE13=Diamond Rio - Norma Jean Riley
TTITLE14=Diamond Rio - Bubba Hyde
TTITLE15=Diamond Rio - Wrinkles
TTITLE16=Diamond Rio - One More Day
EXTD=
EXTT0=
EXTT1=
EXTT2=
EXTT3=
EXTT4=
EXTT5=
EXTT6=
EXTT7=
EXTT8=
EXTT9=
EXTT10=
EXTT11=
EXTT12=
EXTT13=
EXTT14=
EXTT15=
EXTT16=
PLAYORDER=
